<?xml version="1.0" encoding="UTF-8"?>
<svg width="30px" height="30px" viewBox="0 0 30 30" version="1.1" xmlns="http://www.w3.org/2000/svg" xmlns:xlink="http://www.w3.org/1999/xlink">
    <!-- Generator: Sketch 51.1 (57501) - http://www.bohemiancoding.com/sketch -->
    <title>日历</title>
    <desc>Created with Sketch.</desc>
    <defs></defs>
    <g id="Page-2" stroke="none" stroke-width="1" fill="none" fill-rule="evenodd">
        <g id="规范切图" transform="translate(-841.000000, -57.000000)" fill="#83B8F4">
            <g id="日历" transform="translate(841.000000, 57.000000)">
                <g id="Fill-1">
                    <path d="M2.91146025,26.2265261 L27.0870749,26.2265261 L27.0870749,10.794984 L2.91146025,10.794984 L2.91146025,26.2265261 Z M26.8942727,4.09848348 L26.8942727,5.39070905 C26.8942727,6.92528031 25.5828478,8.17409558 23.9714075,8.17409558 C22.3599673,8.17409558 21.0485075,6.92528031 21.0485075,5.39070905 L21.0485075,4.09848348 L9.01852687,4.09848348 L9.01852687,5.38510331 C9.01852687,6.91967457 7.70710197,8.16848984 6.09562684,8.16848984 C4.4843261,8.16848984 3.17426141,6.91967457 3.17426141,5.38510331 L3.17426141,4.09848348 L0,4.09848348 L0,29 L30,29 L30,4.09848348 L26.8942727,4.09848348 Z M7.41852641,2.26017682 C7.41852641,1.56294584 6.82711043,1.00015008 6.09562684,1.00015008 C5.74971284,0.994954513 5.41565716,1.12484361 5.16757425,1.36117339 C4.91935184,1.5976399 4.77740084,1.92102956 4.77290166,2.26017682 L4.77290166,5.43131648 C4.77290166,6.12854746 5.36431764,6.69147995 6.09562684,6.69147995 C6.44168035,6.69626533 6.77535238,6.56623952 7.02343528,6.32990973 C7.27151819,6.09357994 7.41360869,5.77046374 7.41852641,5.43131648 L7.41852641,2.26017682 Z M25.2956324,5.43692222 C25.2956324,6.13282012 24.7028562,6.69694896 23.9714075,6.69694896 C23.2513637,6.70628047 22.6595292,6.1425618 22.6485079,5.43692222 L22.6485079,2.26444949 C22.6485079,1.56855158 23.2414236,1.00442274 23.9714075,1.00442274 C24.7028562,1.00442274 25.2956324,1.56855158 25.2956324,2.26444949 L25.2956324,5.43692222 Z M19.4085724,23.7371332 L23.6971317,23.7371332 L23.6971317,19.6503438 L19.4085724,19.6503438 L19.4085724,23.7371332 Z M12.9271318,23.7371332 L17.217156,23.7371332 L17.217156,19.6503438 L12.9271318,19.6503438 L12.9271318,23.7371332 Z M6.4471561,23.7371332 L10.7356805,23.7371332 L10.7356805,19.6503438 L6.4471561,19.6503438 L6.4471561,23.7371332 Z M19.4085724,17.7714297 L23.6971317,17.7714297 L23.6971317,13.6847771 L19.4085724,13.6847771 L19.4085724,17.7714297 Z M12.9271318,17.7714297 L17.217156,17.7714297 L17.217156,13.6847771 L12.9271318,13.6847771 L12.9271318,17.7714297 Z M6.4471561,17.7714297 L10.7356805,17.7714297 L10.7356805,13.6847771 L6.4471561,13.6847771 L6.4471561,17.7714297 Z"></path>
                </g>
            </g>
        </g>
    </g>
</svg>