<?xml version="1.0" encoding="UTF-8"?>
<svg width="30px" height="30px" viewBox="0 0 30 30" version="1.1" xmlns="http://www.w3.org/2000/svg" xmlns:xlink="http://www.w3.org/1999/xlink">
    <!-- Generator: Sketch 51.1 (57501) - http://www.bohemiancoding.com/sketch -->
    <title>@mdpiRectangle 25</title>
    <desc>Created with Sketch.</desc>
    <defs></defs>
    <g id="Page-2" stroke="none" stroke-width="1" fill="none" fill-rule="evenodd">
        <g id="规范切图" transform="translate(-883.000000, -57.000000)" fill="#83B8F4">
            <g id="search---anticon" transform="translate(883.000000, 57.000000)">
                <g>
                    <path d="M29.6651786,27.9241071 C29.888394,28.1696441 30,28.4598198 30,28.7946429 C30,29.129466 29.888394,29.4196416 29.6651786,29.6651786 C29.4196416,29.888394 29.129466,30 28.7946429,30 C28.4598198,30 28.1808047,29.888394 27.9575893,29.6651786 L21.0602679,22.7678571 C18.6718631,24.7321527 15.9375154,25.7142857 12.8571429,25.7142857 C9.30801797,25.7142857 6.27791434,24.4587179 3.76674107,21.9475446 C1.2555678,19.4363714 0,16.4062677 0,12.8571429 C0,9.30801797 1.2555678,6.27791434 3.76674107,3.76674107 C6.27791434,1.2555678 9.30801797,0 12.8571429,0 C16.4062677,0 19.4363714,1.2555678 21.9475446,3.76674107 C24.4587179,6.27791434 25.7142857,9.30801797 25.7142857,12.8571429 C25.7142857,15.9375154 24.7321527,18.6718631 22.7678571,21.0602679 L29.6651786,27.9241071 Z M16.9084821,22.5 C18.1584884,21.964283 19.2689684,21.2109424 20.2399554,20.2399554 C21.2109424,19.2689684 21.964283,18.1584884 22.5,16.9084821 C23.035717,15.6361544 23.3035714,14.2857214 23.3035714,12.8571429 C23.3035714,11.4285643 23.035717,10.0781314 22.5,8.80580357 C21.964283,7.55579732 21.2109424,6.44531735 20.2399554,5.47433036 C19.2689684,4.50334336 18.1584884,3.75000268 16.9084821,3.21428571 C15.6361544,2.67856875 14.2857214,2.41071429 12.8571429,2.41071429 C11.4285643,2.41071429 10.0781314,2.67856875 8.80580357,3.21428571 C7.55579732,3.75000268 6.44531735,4.50334336 5.47433036,5.47433036 C4.50334336,6.44531735 3.76116328,7.55579732 3.24776786,8.80580357 C2.68972935,10.0781314 2.41071429,11.4285643 2.41071429,12.8571429 C2.41071429,14.2857214 2.68972935,15.6361544 3.24776786,16.9084821 C3.76116328,18.1584884 4.50334336,19.2689684 5.47433036,20.2399554 C6.44531735,21.2109424 7.55579732,21.964283 8.80580357,22.5 C10.0781314,23.035717 11.4285643,23.3035714 12.8571429,23.3035714 C14.2857214,23.3035714 15.6361544,23.035717 16.9084821,22.5 Z"></path>
                </g>
            </g>
        </g>
    </g>
</svg>