<?xml version="1.0" encoding="UTF-8"?>
<svg width="30px" height="30px" viewBox="0 0 30 30" version="1.1" xmlns="http://www.w3.org/2000/svg" xmlns:xlink="http://www.w3.org/1999/xlink">
    <!-- Generator: Sketch 51.1 (57501) - http://www.bohemiancoding.com/sketch -->
    <title>jiaotongshuniu</title>
    <desc>Created with Sketch.</desc>
    <defs></defs>
    <g id="Page-2" stroke="none" stroke-width="1" fill="none" fill-rule="evenodd">
        <g id="规范切图" transform="translate(-130.000000, -54.000000)" fill="#FFFFFF">
            <g id="交通枢纽" transform="translate(113.000000, 37.000000)">
                <g id="jiaotongshuniu_icon" transform="translate(17.000000, 17.000000)">
                    <g id="jiaotongshuniu">
                        <g id="Combined-Shape" transform="translate(6.000000, 2.000000)">
                            <path d="M10.3446962,17.3278059 L14.614741,17.3278059 L14.614741,13.1621107 L10.3446962,13.1621107 L10.3446962,17.3278059 Z M13.3341589,22.3264917 C12.6252335,22.3264917 12.0528156,21.7683583 12.0528156,21.0770059 C12.0528156,20.3854059 12.6252335,19.827025 13.3341589,19.827025 C14.0425768,19.827025 14.614741,20.3854059 14.614741,21.0770059 C14.614741,21.7683583 14.0425768,22.3264917 13.3339052,22.3264917 L13.3341589,22.3264917 Z M4.36627831,17.3278059 L8.63657681,17.3278059 L8.63657681,13.1621107 L4.36627831,13.1621107 L4.36627831,17.3278059 Z M5.64736786,22.3264917 C4.93844248,22.3264917 4.36627831,21.7683583 4.36627831,21.0770059 C4.36627831,20.3854059 4.93844248,19.827025 5.64736786,19.827025 C6.35629323,19.827025 6.92845741,20.3854059 6.92845741,21.0770059 C6.92845741,21.7683583 6.35629323,22.3264917 5.64736786,22.3264917 Z M9.49063651,9.82965356 C13.2656514,9.82965356 16.3231141,10.2463964 16.3231141,13.1621107 L16.3231141,21.0770059 C16.3231141,22.6847964 14.9823977,23.9929678 13.3339052,23.9929678 L14.614741,25.2427012 L14.614741,25.6591964 L4.36627831,25.6591964 L4.36627831,25.2427012 L5.64736786,23.9929678 C3.99912905,23.9929678 2.6581589,22.6847964 2.6581589,21.0770059 L2.6581589,13.1621107 C2.6581589,10.2463964 5.71587532,9.82965356 9.49063651,9.82965356 Z M16.191732,1.83933356 C16.191732,1.83933356 9.82814995,5.73710499 5.66010517,7.83220975 C5.37744845,7.97260975 5.06865741,8.05853356 4.75047831,8.08601927 C4.1983589,8.12984784 3.85785144,8.1461907 3.29253801,8.17169546 C2.99110517,8.22295261 2.68231413,8.15535261 2.43720965,7.98003832 L0.178239499,5.98175261 C0.050866365,5.8594288 -0.0128202022,5.68956213 0.00214994707,5.51771451 C0.0227021859,5.34611451 0.0995827829,5.18367642 0.221373828,5.05392403 C0.485000693,4.78723832 0.891224574,4.69586689 1.25253801,4.82190499 C1.92797084,5.05392403 3.00049323,5.3134288 3.8202992,5.68411451 C3.87637383,5.70590499 3.94006039,5.70590499 3.99638875,5.68411451 L5.99503054,4.7817907 C6.09246338,4.71245737 6.24952308,4.5022288 5.99503054,4.35984784 L2.24437383,2.55148594 C2.10583651,2.50963832 2.00662756,2.39449546 1.99343353,2.2558288 C1.98049323,2.11864784 2.05356786,1.9854288 2.18068726,1.91956213 C2.40549323,1.75340975 2.63182159,1.57438118 2.86195592,1.41367642 C3.08473204,1.19081927 3.39352308,1.06849546 3.71728428,1.07765737 C6.07191114,1.3497907 8.42831413,1.64000022 10.7844634,1.91956213 C10.8220156,1.92154308 10.861344,1.91411451 10.8948365,1.89777165 C11.0016574,1.85394308 11.3028365,1.34434308 13.2380455,0.363524034 C13.7285082,0.131504987 14.2694634,0.0091811772 14.8177768,0.0034859391 L14.8198067,0.00175260577 C15.5008216,-0.0237521561 16.1617917,0.230057368 16.6332246,0.701276415 C16.899135,1.00436213 16.7923141,1.48300975 16.191732,1.83933356 Z"></path>
                        </g>
                    </g>
                </g>
            </g>
        </g>
    </g>
</svg>