<?xml version="1.0" encoding="UTF-8"?>
<svg width="30px" height="30px" viewBox="0 0 30 30" version="1.1" xmlns="http://www.w3.org/2000/svg" xmlns:xlink="http://www.w3.org/1999/xlink">
    <!-- Generator: Sketch 51.1 (57501) - http://www.bohemiancoding.com/sketch -->
    <title>Rectangle 16</title>
    <desc>Created with Sketch.</desc>
    <defs></defs>
    <g id="Page-2" stroke="none" stroke-width="1" fill="none" fill-rule="evenodd">
        <g id="规范切图" transform="translate(-659.000000, -53.000000)" fill="#FFFFFF">
            <g id="chadui_icon" transform="translate(641.000000, 35.000000)">
                <g transform="translate(18.000000, 18.000000)">
                    <g>
                        <g transform="translate(4.000000, 4.000000)">
                            <path d="M15.4,6.6 C15.4,4.1734 13.4266,2.2 11,2.2 C8.5734,2.2 6.6,4.1734 6.6,6.6 C6.6,9.0266 8.5734,11 11,11 C13.4266,11 15.4,9.0266 15.4,6.6 L15.4,6.6 Z M22,22 L16.5,22 L16.5,19.8 L19.5624,19.8 C18.6538,15.6354 15.1635,13.2 11,13.2 C6.8365,13.2 3.3462,15.6354 2.4376,19.8 L5.5,19.8 L5.5,22 L0,22 C0,16.9895 2.8413,13.2528 6.8662,11.7403 C5.3636,10.5314 4.4,8.679 4.4,6.6 C4.4,2.9546 7.3546,0 11,0 C14.6454,0 17.6,2.9546 17.6,6.6 C17.6,8.679 16.6364,10.5314 15.1338,11.7403 C19.1587,13.2528 22,16.9895 22,22 L22,22 Z" id="Icon"></path>
                            <rect id="Rectangle-27" fill-rule="nonzero" transform="translate(10.811270, 19.611270) rotate(-315.000000) translate(-10.811270, -19.611270) " x="7.51126984" y="18.5112698" width="6.6" height="2.2"></rect>
                            <rect id="Rectangle-27-Copy" fill-rule="nonzero" transform="translate(10.811270, 19.611270) scale(-1, 1) rotate(-315.000000) translate(-10.811270, -19.611270) " x="7.51126984" y="18.5112698" width="6.6" height="2.2"></rect>
                        </g>
                    </g>
                </g>
            </g>
        </g>
    </g>
</svg>