<?xml version="1.0" encoding="UTF-8"?>
<svg width="30px" height="30px" viewBox="0 0 30 30" version="1.1" xmlns="http://www.w3.org/2000/svg" xmlns:xlink="http://www.w3.org/1999/xlink">
    <!-- Generator: Sketch 51.1 (57501) - http://www.bohemiancoding.com/sketch -->
    <title>@mdpiRectangle 18</title>
    <desc>Created with Sketch.</desc>
    <defs></defs>
    <g id="Page-2" stroke="none" stroke-width="1" fill="none" fill-rule="evenodd">
        <g id="规范切图" transform="translate(-765.000000, -53.000000)">
            <g id="weiguishangke_icon" transform="translate(747.000000, 35.000000)">
                <g transform="translate(18.000000, 18.000000)">
                    <g>
                        <g transform="translate(3.000000, 4.000000)">
                            <path d="M12.6393661,18.8 L19.6035534,10.9 L18.2942679,10.9 L17.6397224,4.3 L14.2727273,4.3 L14.2727273,1 L7.54545455,1 L7.54545455,4.3 L4.17845938,4.3 L3.52391393,10.9 L1,10.9 L1,18.8 L12.6393661,18.8 Z" id="Combined-Shape" stroke="#FFFFFF" stroke-width="2" fill-rule="nonzero"></path>
                            <rect id="Rectangle-15" fill="#FFFFFF" fill-rule="nonzero" x="4.36363636" y="13.2" width="2.18181818" height="2.2"></rect>
                            <rect id="Rectangle-15-Copy-2" fill="#FFFFFF" fill-rule="nonzero" x="4.36363636" y="19.8" width="2.18181818" height="2.2"></rect>
                            <rect id="Rectangle-15-Copy" fill="#FFFFFF" fill-rule="nonzero" transform="translate(19.515368, 17.477996) rotate(-315.000000) translate(-19.515368, -17.477996) " x="14.6062771" y="16.377996" width="9.81818182" height="2.2"></rect>
                            <rect id="Rectangle-15-Copy-3" fill="#FFFFFF" fill-rule="nonzero" transform="translate(19.515368, 17.477996) scale(1, -1) rotate(-315.000000) translate(-19.515368, -17.477996) " x="14.6062771" y="16.377996" width="9.81818182" height="2.2"></rect>
                        </g>
                    </g>
                </g>
            </g>
        </g>
    </g>
</svg>